#!OML:ASF H:\Male1\Project 1\Capture day 1\Session 1\Male1.ASF
:FULLY-SPECIFIED
:DEGREES
707
root -15.2534 15.0448 -0.0220721 1565.76 261.797 -130.607
lowerback 3.93205 0.318212 -6.85914
upperback 5.93632 0.206021 -1.81156
thorax 3.93932 -0.217592 1.95118
lowerneck -11.8948 2.91001 4.93396
upperneck 29.4809 2.13897 0.195864
head 11.6526 1.26247 -0.547827
rclavicle -6.08778e-015 4.67144e-015
rhumerus -36.7266 4.12701 -89.0968
rradius 35.5354
rwrist -18.2516
rhand -16.8827 -1.17266
rfingers 7.12502
rthumb 9.34856 -30.9454
lclavicle -6.08778e-015 4.67144e-015
lhumerus -12.8435 -28.4514 90.817
lradius 44.7121
lwrist 7.53281
lhand -23.8061 13.8599
lfingers 7.12502
lthumb 2.66465 43.823
rfemur -27.5695 23.6419 9.37501
rtibia 29.8148
rfoot -41.1161 -34.4041
rtoes -6.52279
lfemur 22.5041 -8.55675 -34.6512
ltibia 4.05298
lfoot -12.9206 11.8441
ltoes -2.82138
708
root -15.5289 15.0042 -0.0421035 1565.4 261.26 -130.274
lowerback 3.94014 0.26763 -7.24912
upperback 5.91299 0.132083 -1.91218
thorax 3.92113 -0.268078 2.06372
lowerneck -11.9222 2.89637 4.82979
upperneck 29.7867 2.06547 0.373664
head 11.7734 1.23677 -0.47423
rclavicle -1.18774e-014 7.15625e-015
rhumerus -36.7858 4.27527 -89.1923
rradius 35.4578
rwrist -18.3722
rhand -16.9931 -1.2749
rfingers 7.12502
rthumb 9.24203 -31.0523
lclavicle -1.18774e-014 7.15625e-015
lhumerus -12.9454 -28.5846 90.9665
lradius 46.1135
lwrist 8.10496
lhand -23.8164 13.8118
lfingers 7.12502
lthumb 2.65464 43.775
rfemur -27.5573 25.4223 8.30605
rtibia 29.1976
rfoot -43.3226 -32.6229
rtoes 0.592892
lfemur 24.8354 -8.2926 -34.9134
ltibia 1.76754
lfoot -11.6686 11.2106
ltoes -4.19121
709
root -15.8098 14.9802 -0.0560736 1565.23 261.077 -130.227
lowerback 3.98662 0.270547 -7.18867
upperback 5.91349 0.132737 -1.96879
thorax 3.89464 -0.263625 1.97145
lowerneck -11.9076 2.88624 4.85649
upperneck 30.0651 2.02746 0.357337
head 11.8807 1.21775 -0.490793
rclavicle -9.87711e-015 -2.31584e-014
rhumerus -36.822 4.23622 -89.23
rradius 35.2948
rwrist -18.3127
rhand -16.9223 -1.34071
rfingers 7.12502
rthumb 9.31032 -31.1151
lclavicle -9.87711e-015 -2.31584e-014
lhumerus -13.2535 -28.5818 91.1766
lradius 47.4117
lwrist 8.35314
lhand -23.8451 13.3625
lfingers 7.12502
lthumb 2.62692 43.3261
rfemur -27.3774 24.1511 8.51491
rtibia 29.1151
rfoot -38.3076 -32.0161
rtoes -6.76379
lfemur 25.3822 -7.85506 -34.8301
ltibia 3.03708
lfoot -12.0932 10.3999
ltoes -6.73345
710
root -16.0861 14.9369 -0.0704009 1566.38 261.004 -131.35
lowerback 3.86759 0.243961 -6.81625
upperback 5.88952 0.116436 -2.00479
thorax 3.93356 -0.254659 1.72758
lowerneck -11.9221 2.85849 4.90552
upperneck 30.319 1.96872 0.313462
head 11.985 1.1895 -0.524049
rclavicle 3.00662e-015 2.6985e-014
rhumerus -36.8172 4.03178 -89.2204
rradius 35.1472
rwrist -18.2863
rhand -16.8354 -1.23497
rfingers 7.12502
rthumb 9.39419 -31.0056
lclavicle 3.00662e-015 2.6985e-014
lhumerus -13.7247 -28.5658 91.4172
lradius 48.5963
lwrist 8.39451
lhand -23.6617 12.9789
lfingers 7.12502
lthumb 2.80412 42.9402
rfemur -26.5139 19.9849 9.93696
rtibia 29.4248
rfoot -33.3698 -29.4557
rtoes -10.5813
lfemur 24.8873 -7.54116 -34.5242
ltibia 5.99969
lfoot -13.2316 9.60887
ltoes -9.78888
711
root -16.3796 14.8864 -0.0886717 1566.42 260.755 -131.501
lowerback 3.71241 0.219547 -6.75805
upperback 5.91938 0.101533 -2.06239
thorax 4.05324 -0.262434 1.63488
lowerneck -11.9808 2.84906 4.85361
upperneck 30.597 1.93031 0.360065
head 12.1065 1.17037 -0.502844
rclavicle 3.3986e-014 2.17669e-014
rhumerus -36.9277 3.83726 -89.1702
rradius 35.1758
rwrist -18.1471
rhand -16.7514 -1.41984
rfingers 7.12502
rthumb 9.47523 -31.1868
lclavicle 3.3986e-014 2.17669e-014
lhumerus -14.4935 -28.3328 91.7553
lradius 49.6352
lwrist 8.2871
lhand -23.3871 12.4948
lfingers 7.12502
lthumb 3.06924 42.4524
rfemur -25.5322 17.1312 10.8844
rtibia 29.8322
rfoot -29.2692 -27.8297
rtoes -13.8466
lfemur 24.1921 -7.17434 -34.4565
ltibia 9.70773
lfoot -14.1653 9.10247
ltoes -11.8087
712
root -16.6783 14.8516 -0.109115 1567.69 260.46 -132.825
lowerback 3.52293 0.112949 -6.6055
upperback 5.89322 -0.0190213 -2.08855
thorax 4.14019 -0.315715 1.52275
lowerneck -11.9844 2.83634 4.83197
upperneck 30.8143 1.90596 0.342368
head 12.194 1.15279 -0.509684
rclavicle -1.30452e-016 1.51076e-014
rhumerus -37.1611 3.74207 -89.1494
rradius 35.2007
rwrist -18.0006
rhand -16.6317 -1.65953
rfingers 7.12502
rthumb 9.59075 -31.4212
lclavicle -1.30452e-016 1.51076e-014
lhumerus -15.5455 -27.8996 92.1624
lradius 50.5046
lwrist 8.00802
lhand -23.1275 11.7747
lfingers 7.12502
lthumb 3.32 41.7286
rfemur -24.5193 15.0704 11.7003
rtibia 30.4532
rfoot -26.9776 -26.6178
rtoes -13.4062
lfemur 23.0309 -7.01645 -34.2514
ltibia 14.2147
lfoot -14.1599 9.02461
ltoes -10.6724
713
root -16.9651 14.8465 -0.142108 1573.97 260.077 -138.733
lowerback 3.30414 -0.226511 -6.06531
upperback 5.58241 -0.447484 -1.90703
thorax 3.96016 -0.49108 1.41263
lowerneck -11.7512 2.79507 4.72131
upperneck 31.0398 1.87716 0.295659
head 12.2338 1.11599 -0.515873
rclavicle -1.20727e-015 -4.39656e-015
rhumerus -37.6614 3.7491 -89.1096
rradius 35.249
rwrist -18.106
rhand -16.7699 -1.50701
rfingers 7.12502
rthumb 9.45734 -31.2748
lclavicle -1.20727e-015 -4.39656e-015
lhumerus -16.8884 -27.2677 92.7791
lradius 51.1054
lwrist 7.41837
lhand -22.852 11.1522
lfingers 7.12502
lthumb 3.58598 41.1018
rfemur -24.2353 15.6926 12.0257
rtibia 30.9545
rfoot -27.7165 -26.7379
rtoes -10.4697
lfemur 21.1305 -6.74961 -32.9872
ltibia 18.9854
lfoot -14.4995 7.80063
ltoes -14.9775
714
root -17.2344 14.8463 -0.175028 1579.07 259.267 -143.464
lowerback 3.34307 -0.507225 -5.74486
upperback 5.22945 -0.823422 -1.78718
thorax 3.58826 -0.645678 1.36383
lowerneck -11.5739 2.68945 4.33702
upperneck 31.4349 1.70802 0.562765
head 12.3439 1.023 -0.374954
rclavicle -9.91439e-015 -7.40473e-015
rhumerus -38.1169 3.42068 -88.8581
rradius 35.233
rwrist -18.1778
rhand -16.9546 -1.26825
rfingers 7.12502
rthumb 9.27917 -31.044
lclavicle -9.91439e-015 -7.40473e-015
lhumerus -18.0566 -26.8224 93.4494
lradius 51.139
lwrist 6.75733
lhand -22.6749 10.5227
lfingers 7.12502
lthumb 3.75704 40.4693
rfemur -23.8935 13.5498 12.3966
rtibia 31.3888
rfoot -25.2178 -24.5779
rtoes -5.04712
lfemur 18.6128 -6.65147 -31.9632
ltibia 24.3649
lfoot -13.5323 6.16703
ltoes -17.2227
715
root -17.535 14.8477 -0.174985 1584.54 260.89 -149.321
lowerback 3.37662 -0.243625 -3.50852
upperback 5.17775 -0.452259 -1.23205
thorax 3.46013 -0.380473 0.692024
lowerneck -11.5153 2.61991 4.01825
upperneck 31.9617 1.60404 0.689453
head 12.539 0.948336 -0.287616
rclavicle 3.15322e-014 -1.98785e-016
rhumerus -38.4417 3.24212 -88.4677
rradius 34.9907
rwrist -18.2124
rhand -16.8176 -1.29902
rfingers 7.12502
rthumb 9.41133 -31.0689
lclavicle 3.15322e-014 -1.98785e-016
lhumerus -19.1151 -26.1993 94.1195
lradius 50.5577
lwrist 6.17157
lhand -22.5819 10.0305
lfingers 7.12502
lthumb 3.84687 39.9755
rfemur -22.7467 11.575 15.1519
rtibia 31.5961
rfoot -22.0959 -21.4688
rtoes -5.28911
lfemur 16.6578 -5.09852 -29.2958
ltibia 30.2122
lfoot -12.2927 4.39672
ltoes -18.4258
716
root -17.7975 14.8729 -0.199087 1592.69 261.644 -157.286
lowerback 3.52007 -0.21667 -2.05109
upperback 4.90737 -0.407747 -0.662186
thorax 3.08406 -0.305301 0.467817
lowerneck -11.4538 2.57522 4.05359
upperneck 32.3161 1.60392 0.378447
head 12.6755 0.908442 -0.414502
rclavicle 1.84124e-014 8.34896e-015
rhumerus -38.5832 3.28786 -88.1138
rradius 34.6518
rwrist -18.3389
rhand -16.7226 -1.41311
rfingers 7.12502
rthumb 9.50296 -31.1788
lclavicle 1.84124e-014 8.34896e-015
lhumerus -20.1465 -25.1334 94.7323
lradius 49.5421
lwrist 5.25313
lhand -22.5678 9.72015
lfingers 7.12502
lthumb 3.86044 39.6649
rfemur -22.2394 9.55152 17.3474
rtibia 31.8227
rfoot -18.5762 -22.1137
rtoes -10.8245
lfemur 13.6523 -4.13059 -26.6766
ltibia 36.2427
lfoot -10.0572 2.01982
ltoes -19.8083
